# xmcd
#
# Track frame offsets:
#	187
#	11895
#	28880
#	42967
#	56145
#	71692
#	79807
#	94020
#	107550
#	126070
#	140512
#	151235
#	173517
#	181170
#	201155
#	217430
#	232055
#	259517
#
# Disc length: 3671 seconds
#
# Revision: 1
# Processed by: cddbd v1.5.1PL0 Copyright (c) Steve Scherf et al.
# Submitted via: CDex 1.50Beta5
#
DISCID=020e5512
DTITLE=アンソロジー - グラスを遊ばせて〜ヴァイオリン・アンソロジー
DYEAR=1900
DGENRE=Unclassifiable
TTITLE0=夢のあとに
TTITLE1=ロマンス
TTITLE2=ジムノペディ第1番
TTITLE3=グノシェンヌ第1番
TTITLE4=グノシェンヌ第5番
TTITLE5=美しきロスマリン
TTITLE6=愛の喜び
TTITLE7=亜麻色の髪の乙女
TTITLE8=小舟で
TTITLE9=セレナード
TTITLE10=母の教え給いし歌
TTITLE11=お前が欲しい(ジュ・トゥ・ヴ)
TTITLE12=ピカデリー
TTITLE13=金の粉
TTITLE14=思い出
TTITLE15=歌の翼に
TTITLE16=アストゥリアス
TTITLE17=ヘ調のメロディ
EXTD=グラスを遊ばせて〜ヴァイオリン・アンソロジー
EXTT0=
EXTT1=
EXTT2=
EXTT3=
EXTT4=
EXTT5=
EXTT6=
EXTT7=
EXTT8=
EXTT9=
EXTT10=
EXTT11=
EXTT12=
EXTT13=
EXTT14=
EXTT15=
EXTT16=
EXTT17=
PLAYORDER=
